<svg xmlns="http://www.w3.org/2000/svg" viewBox="0 0 512 512" fill="none">
  <circle cx="256" cy="256" r="248" fill="#ffffff" />
  <g transform="translate(256 256) scale(1.15) translate(-256 -256)">
    <g transform="translate(0 108.09) scale(0.5689)">
      <g transform="scale(0.78,1) translate(115,0)" stroke="#000000" stroke-width="42" stroke-linecap="round" stroke-linejoin="round" fill="none">
        <g transform="translate(-80,-70)">
          <path d="M610 175
                   C560 175 530 205 530 245
                   C530 285 560 315 610 315
                   C660 315 690 285 690 245
                   C690 205 660 175 610 175
                   C585 175 565 188 552 205
                   C530 232 540 270 565 292
                   C585 310 600 328 600 350
                   C600 372 585 390 565 408
                   C540 430 530 468 552 495
                   C565 512 585 525 610 525
                   C660 525 690 495 690 455
                   C690 415 660 385 610 385
                   C560 385 530 415 530 455
                   C530 495 560 525 610 525" />
        </g>
        <path d="M165 150 Q110 115 95 80" />
        <path d="M165 150
                 C245 95 330 115 310 165
                 C292 205 220 195 165 150" />
        <path d="M155 175
                 C120 250 145 350 260 405
                 C430 485 640 470 780 405" />
        <path d="M780 405 Q825 380 855 330" />
        <circle cx="88" cy="72" r="22" fill="#000000" />
      </g>
    </g>
  </g>
</svg>
